<?xml version="1.0" encoding="UTF-8"?><svg id="a" xmlns="http://www.w3.org/2000/svg" width="24" height="24" viewBox="0 0 24 24"><path d="m20.0001,16.5c-1.3784,0-2.5,1.1216-2.5,2.5v1c0,1.3784,1.1216,2.5,2.5,2.5s2.5-1.1216,2.5-2.5v-1c0-1.3784-1.1216-2.5-2.5-2.5Zm1.5,3.5c0,.8271-.6729,1.5-1.5,1.5s-1.5-.6729-1.5-1.5v-1c0-.8271.6729-1.5,1.5-1.5s1.5.6729,1.5,1.5v1Zm-17.2373-3.4253c.1475.0913.2373.252.2373.4253v5c0,.2764-.2236.5-.5.5s-.5-.2236-.5-.5v-4.1909l-1.2764.6382c-.2466.123-.5469.0234-.6709-.2236-.1235-.2471-.0234-.5474.2236-.6709l2-1c.1548-.0776.3384-.0698.4863.022Zm-.2627-9.0747c1.3784,0,2.5-1.1216,2.5-2.5v-1c0-1.3784-1.1216-2.5-2.5-2.5s-2.5,1.1216-2.5,2.5v1c0,1.3784,1.1216,2.5,2.5,2.5Zm-1.5-3.5c0-.8271.6729-1.5,1.5-1.5s1.5.6729,1.5,1.5v1c0,.8271-.6729,1.5-1.5,1.5s-1.5-.6729-1.5-1.5v-1ZM20.0001,1.5c-1.3784,0-2.5,1.1216-2.5,2.5v1c0,1.3784,1.1216,2.5,2.5,2.5s2.5-1.1216,2.5-2.5v-1c0-1.3784-1.1216-2.5-2.5-2.5Zm1.5,3.5c0,.8271-.6729,1.5-1.5,1.5s-1.5-.6729-1.5-1.5v-1c0-.8271.6729-1.5,1.5-1.5s1.5.6729,1.5,1.5v1Zm-4.4766,2.9526l-4.7998-2.3999c-.1406-.0703-.3066-.0703-.4473,0l-4.7998,2.3999c-.1694.085-.2764.2578-.2764.4473,0,3.9136,1.8691,7.6519,5,10,.0889.0669.1943.1001.2998.1001s.2109-.0332.2998-.1001c3.1309-2.3481,5-6.0864,5-10,0-.1895-.1069-.3623-.2764-.4473Zm-5.0234,9.4146c-2.6196-2.106-4.2046-5.2983-4.2954-8.6602l4.2954-2.1479,4.2954,2.1479c-.0908,3.3618-1.6758,6.5542-4.2954,8.6602ZM7.5528,3.2236c-.1235-.2471-.0234-.5474.2236-.6709l2-1c.1548-.0771.3384-.0693.4863.022.1475.0913.2373.252.2373.4253v2.5137l-1,.5v-2.2046l-1.2764.6382c-.2476.123-.5469.0234-.6709-.2236Zm5,0c-.1235-.2471-.0234-.5474.2236-.6709l2-1c.1543-.0771.3379-.0693.4863.022.1475.0913.2373.252.2373.4253v3.5137l-1-.5v-2.2046l-1.2764.6382c-.2466.123-.5469.0234-.6709-.2236Zm7.9473,11.2764v-4.1909l-1.2764.6382c-.236.1176-.5161.028-.649-.1957.0363-.21.0855-.417.1122-.629.0291-.0242.0543-.0522.0896-.0699l2-1c.1543-.0776.3384-.0703.4863.022.1475.0913.2373.252.2373.4253v5c0,.2764-.2236.5-.5.5s-.5-.2236-.5-.5ZM4.0001,9c-1.3784,0-2.5,1.1216-2.5,2.5v1c0,1.3784,1.1216,2.5,2.5,2.5.9803,0,1.822-.5724,2.2315-1.3959-.5432-1.3501-.8729-2.7823-.9749-4.2527-.3707-.2177-.7966-.3514-1.2567-.3514Zm1.5,3.5c0,.8271-.6729,1.5-1.5,1.5s-1.5-.6729-1.5-1.5v-1c0-.8271.6729-1.5,1.5-1.5s1.5.6729,1.5,1.5v1Zm9,5.9873c.3528-.3404.6864-.6984,1-1.072v4.5847c0,.2764-.2236.5-.5.5s-.5-.2236-.5-.5v-3.5127Zm-3.7002,1.1128c.2136.16.4533.256.7002.3199v.08c0,1.3784-1.1216,2.5-2.5,2.5s-2.5-1.1216-2.5-2.5v-1c0-1.0139.6093-1.8847,1.4788-2.2766.2087.2824.4192.5623.6491.8289-.6466.1667-1.1279.7497-1.1279,1.4476v1c0,.8271.6729,1.5,1.5,1.5s1.5-.6729,1.5-1.5v-.6539c.1028.0818.1945.1749.2998.254Z"/></svg>