<?xml version="1.0" encoding="UTF-8"?><svg id="a" xmlns="http://www.w3.org/2000/svg" width="24" height="24" viewBox="0 0 24 24"><path d="m21.5,5v4c0,.2764-.2236.5-.5.5s-.5-.2236-.5-.5v-4c0-.8271-.6729-1.5-1.5-1.5h-4c-.2764,0-.5-.2236-.5-.5s.2236-.5.5-.5h4c1.3784,0,2.5,1.1211,2.5,2.5Zm-.5,9.5c-.2764,0-.5.2236-.5.5v4c0,.8271-.6729,1.5-1.5,1.5h-4c-.2764,0-.5.2236-.5.5s.2236.5.5.5h4c1.3784,0,2.5-1.1211,2.5-2.5v-4c0-.2764-.2236-.5-.5-.5Zm-12,6h-4c-.8271,0-1.5-.6729-1.5-1.5v-4c0-.2764-.2236-.5-.5-.5s-.5.2236-.5.5v4c0,1.3789,1.1216,2.5,2.5,2.5h4c.2764,0,.5-.2236.5-.5s-.2236-.5-.5-.5ZM3,9.5c.2764,0,.5-.2236.5-.5v-4c0-.8271.6729-1.5,1.5-1.5h4c.2764,0,.5-.2236.5-.5s-.2236-.5-.5-.5h-4c-1.3784,0-2.5,1.1211-2.5,2.5v4c0,.2764.2236.5.5.5Zm4.5-1.5v1c0,.2764.2236.5.5.5s.5-.2236.5-.5v-1c0-.2764-.2236-.5-.5-.5s-.5.2236-.5.5Zm8.5,1.5c.2764,0,.5-.2236.5-.5v-1c0-.2764-.2236-.5-.5-.5s-.5.2236-.5.5v1c0,.2764.2236.5.5.5Zm-3.0918,1.4346c.2891.5781.1758,1.2734-.2812,1.7314-.1953.1953-.1953.5117,0,.707.0977.0977.2256.1465.3535.1465s.2559-.0488.3535-.1465c.7622-.7627.9502-1.9219.4688-2.8857l-.8555-1.7109c-.1235-.2461-.4229-.3477-.6709-.2236-.2471.124-.3472.4238-.2236.6709l.8555,1.7109Zm3.5391,4.2891c.123-.2461.0234-.543-.2212-.668-.2446-.1221-.5449-.0254-.6719.2178-.0361.0703-.9248,1.7266-3.5542,1.7266s-3.5181-1.6562-3.5527-1.7236c-.124-.2461-.4233-.3486-.6709-.2236-.2471.124-.3472.4238-.2236.6709.0464.0928,1.1758,2.2764,4.4473,2.2764s4.4009-2.1836,4.4473-2.2764Z"/></svg>