<?xml version="1.0" encoding="UTF-8"?><svg id="a" xmlns="http://www.w3.org/2000/svg" width="24" height="24" viewBox="0 0 24 24"><path d="m4.5,12c.2761,0,.5.2238.5.5s-.2239.5-.5.5-.5-.2239-.5-.5.2239-.5.5-.5Zm0-5c.2761,0,.5-.2239.5-.5s-.2239-.5-.5-.5-.5.2238-.5.5.2239.5.5.5Zm-.5,11.5c0,.2761.2239.5.5.5s.5-.2239.5-.5-.2239-.5-.5-.5-.5.2238-.5.5Zm18.5-5.5c0,3.2871-1.5703,6.4272-4.2002,8.3999-.0889.0669-.1943.1001-.2998.1001s-.2109-.0332-.2998-.1001c-2.6299-1.9727-4.2002-5.1128-4.2002-8.3999,0-.1895.1074-.3623.2764-.4473l4-2c.1406-.0703.3066-.0703.4473,0l4,2c.1689.085.2764.2578.2764.4473Zm-1.0049.3066l-3.4951-1.7476-3.4951,1.7476c.0898,2.7349,1.376,5.3296,3.4951,7.0586,2.1191-1.729,3.4053-4.3237,3.4951-7.0586Zm-6.3885,7.7184c.26.2892.5294.5695.8181.8333-1.5404.4039-3.6697.6417-5.9246.6417-2.9399,0-8.5-.5225-8.5-2.5V5C1.5,2.7266,5.8794,1.5,10,1.5s8.5,1.2266,8.5,3.5v4.0684c-.3214-.083-.6564-.0822-.9783-.0027-.1426.0327-.2825.0785-.4162.1453l-1.3845.6922c-1.8217.4438-4.1452.5969-5.721.5969-2.1712,0-5.7656-.287-7.5-1.2326v4.7326c0,.4355,2.6284,1.5,7.5,1.5.7725,0,1.5332-.0311,2.2642-.0859.069.332.1557.6579.2521.982-.8099.0659-1.6561.1039-2.5163.1039-2.1689,0-5.7632-.2847-7.5-1.2275v4.7275c0,.4355,2.6284,1.5,7.5,1.5,1.9181,0,3.7175-.1756,5.1066-.475ZM2.5,8c0,.4355,2.6284,1.5,7.5,1.5s7.5-1.0645,7.5-1.5v-3c0-1.1802-3.207-2.5-7.5-2.5s-7.5,1.3198-7.5,2.5v3Z"/></svg>