<?xml version="1.0" encoding="UTF-8"?><svg id="a" xmlns="http://www.w3.org/2000/svg" width="24" height="24" viewBox="0 0 24 24"><path d="m9,18.5c.2764,0,.5-.2236.5-.5v-1.5921c.5807-.2071,1-.7569,1-1.4079,0-.8271-.6729-1.5-1.5-1.5s-1.5.6729-1.5,1.5c0,.651.4193,1.2008,1,1.4079v1.5921c0,.2764.2236.5.5.5Zm0-4c.2759,0,.5.2246.5.5s-.2241.5-.5.5-.5-.2246-.5-.5.2241-.5.5-.5Zm10-8h-6.8472c-.5749-1.2067-1.7949-2-3.1528-2-1.9297,0-3.5,1.5703-3.5,3.5s1.5703,3.5,3.5,3.5c1.3579,0,2.5779-.7933,3.1528-2h6.8472c.8271,0,1.5-.6729,1.5-1.5s-.6729-1.5-1.5-1.5Zm-10,4c-1.3784,0-2.5-1.1211-2.5-2.5s1.1216-2.5,2.5-2.5c.7994,0,1.5345.3831,1.9985,1h-1.9985c-.8271,0-1.5.6729-1.5,1.5s.6729,1.5,1.5,1.5h1.9985c-.4639.6169-1.1991,1-1.9985,1Zm10-2h-10c-.2759,0-.5-.2246-.5-.5s.2241-.5.5-.5h10c.2754,0,.5.2246.5.5s-.2246.5-.5.5Zm-5.5,2.5h1v6c0,3.0322-2.4673,5.5-5.5,5.5s-5.5-2.4678-5.5-5.5V7c0-3.0322,2.4673-5.5,5.5-5.5,2.3265,0,4.3156,1.4547,5.1179,3.5h-1.108c-.7394-1.4753-2.2503-2.5-4.0099-2.5-2.4814,0-4.5,2.0186-4.5,4.5v10c0,2.4814,2.0186,4.5,4.5,4.5s4.5-2.0186,4.5-4.5v-6Z"/></svg>