<?xml version="1.0" encoding="UTF-8"?><svg id="a" xmlns="http://www.w3.org/2000/svg" width="24" height="24" viewBox="0 0 24 24"><path d="m10.5,5.5c0,.2761-.2239.5-.5.5s-.5-.2239-.5-.5.2239-.5.5-.5.5.2238.5.5Zm2.5-.5c-.2761,0-.5.2238-.5.5s.2239.5.5.5.5-.2239.5-.5-.2239-.5-.5-.5Zm-6,0c-.2761,0-.5.2238-.5.5s.2239.5.5.5.5-.2239.5-.5-.2239-.5-.5-.5Zm3,3c-.2761,0-.5.2238-.5.5s.2239.5.5.5.5-.2239.5-.5-.2239-.5-.5-.5Zm3,0c-.2761,0-.5.2238-.5.5s.2239.5.5.5.5-.2239.5-.5-.2239-.5-.5-.5Zm-6,0c-.2761,0-.5.2238-.5.5s.2239.5.5.5.5-.2239.5-.5-.2239-.5-.5-.5Zm3,3c-.2761,0-.5.2238-.5.5s.2239.5.5.5.5-.2239.5-.5-.2239-.5-.5-.5Zm3,0c-.2761,0-.5.2238-.5.5s.2239.5.5.5.5-.2239.5-.5-.2239-.5-.5-.5Zm-6,0c-.2761,0-.5.2238-.5.5s.2239.5.5.5.5-.2239.5-.5-.2239-.5-.5-.5Zm13.5,5v2c0,.8271-.6729,1.5-1.5,1.5h-8.8931c-1.2734,0-2.3794-.8955-2.5732-2.084-.1191-.7334.0854-1.4756.5615-2.0352s1.1704-.8809,1.9048-.8809h9c.8271,0,1.5.6729,1.5,1.5Zm-1,0c0-.2754-.2241-.5-.5-.5h-9c-.4404,0-.8574.1924-1.1431.5283-.29.3408-.4092.7773-.3359,1.2275.1152.709.7974,1.2441,1.5859,1.2441h8.8931c.2759,0,.5-.2246.5-.5v-2Zm-9.5.5c-.2761,0-.5.2238-.5.5s.2239.5.5.5.5-.2239.5-.5-.2239-.5-.5-.5Zm4,5H6c-.8271,0-1.5-.6729-1.5-1.5V4c0-.8271.6729-1.5,1.5-1.5h8c.8271,0,1.5.6729,1.5,1.5v9h1V4c0-1.3789-1.1216-2.5-2.5-2.5H6c-1.3784,0-2.5,1.1211-2.5,2.5v16c0,1.3789,1.1216,2.5,2.5,2.5h8c1.0226,0,1.9014-.6185,2.2882-1.5h-1.1783c-.2748.3046-.6683.5-1.1099.5Z"/></svg>