<?xml version="1.0" encoding="UTF-8"?><svg id="a" xmlns="http://www.w3.org/2000/svg" width="24" height="24" viewBox="0 0 24 24"><path d="m20.5,15.5506v-1.5506c0-1.3784-1.1211-2.5-2.5-2.5s-2.5,1.1216-2.5,2.5v1.5506c-1.14.2323-2,1.2422-2,2.4494v2c0,1.3784,1.1211,2.5,2.5,2.5h4c1.3789,0,2.5-1.1216,2.5-2.5v-2c0-1.2072-.86-2.2171-2-2.4494Zm-4-1.5506c0-.8271.6729-1.5,1.5-1.5s1.5.6729,1.5,1.5v1.5h-3v-1.5Zm5,6c0,.8271-.6729,1.5-1.5,1.5h-4c-.8271,0-1.5-.6729-1.5-1.5v-2c0-.8271.6729-1.5,1.5-1.5h4c.8271,0,1.5.6729,1.5,1.5v2Zm-17.5,1.5c-.8271,0-1.5-.6729-1.5-1.5V4c0-.8271.6729-1.5,1.5-1.5h7.5v3.5c0,1.3784,1.1211,2.5,2.5,2.5h3.5v1.5505c.1656-.021.3288-.0505.5-.0505s.3344.0295.5.0505v-2.2219c0-.668-.2598-1.2959-.7324-1.7681l-3.8281-3.8281c-.4727-.4722-1.0996-.7324-1.7676-.7324H4c-1.3789,0-2.5,1.1216-2.5,2.5v16c0,1.3784,1.1211,2.5,2.5,2.5h8.9028c-.2453-.3032-.4562-.6334-.6053-1H4ZM12.5,2.5401c.2747.0624.5317.1987.7324.3994l3.8281,3.8281c.2039.2042.3391.4575.4005.7324h-3.461c-.8271,0-1.5-.6729-1.5-1.5v-3.4599Z"/></svg>