<?xml version="1.0" encoding="UTF-8"?><svg id="a" xmlns="http://www.w3.org/2000/svg" width="24" height="24" viewBox="0 0 24 24"><path d="m8.4326,21.448c-.0928.1602-.2607.2495-.4326.2495-.085,0-.1719-.0215-.25-.0674-2.0049-1.1592-3.25-3.3164-3.25-5.6299v-6c0-.2764.2236-.5.5-.5s.5.2236.5.5v6c0,1.9575,1.0537,3.7832,2.75,4.7646.2393.1382.3213.4438.1826.6831Zm1.0674-18.9316c1.4961-.0991,2.9668.2441,4.249.9868.2363.1377.5439.0576.6836-.1821.1387-.2388.0566-.5449-.1816-.6831-1.4561-.8423-3.1289-1.231-4.8154-1.1196C4.9854,1.8064,1.5,5.6526,1.5,10.2742v3.2964c0,.2764.2236.5.5.5s.5-.2236.5-.5v-3.2964c0-4.0962,3.0752-7.5034,7-7.7578Zm13,14.4839c0,3.0327-2.4678,5.5-5.5,5.5s-5.5-2.4673-5.5-5.5,2.4678-5.5,5.5-5.5,5.5,2.4673,5.5,5.5Zm-1,0c0-2.4814-2.0186-4.5-4.5-4.5s-4.5,2.0186-4.5,4.5,2.0186,4.5,4.5,4.5,4.5-2.0186,4.5-4.5Zm-2.6465-1.8535c-.1953-.1953-.5117-.1953-.707,0l-1.1465,1.1465-1.1465-1.1465c-.1953-.1953-.5117-.1953-.707,0s-.1953.5117,0,.707l1.1465,1.1465-1.1465,1.1465c-.1953.1953-.1953.5117,0,.707.0977.0977.2256.1465.3535.1465s.2559-.0488.3535-.1465l1.1465-1.1465,1.1465,1.1465c.0977.0977.2256.1465.3535.1465s.2559-.0488.3535-.1465c.1953-.1953.1953-.5117,0-.707l-1.1465-1.1465,1.1465-1.1465c.1953-.1953.1953-.5117,0-.707Zm-10.3535-1.1465v-4c0-.4404.1924-.8574.5283-1.1431.3408-.2905.7754-.4102,1.2275-.3359.709.1152,1.2441.7969,1.2441,1.5859v2.5774c.298-.3789.6315-.728,1-1.0383v-1.5391c0-1.2739-.8955-2.3804-2.084-2.5732-.7285-.1167-1.4746.0854-2.0352.5615-.5596.4761-.8809,1.1704-.8809,1.9048v4c0,2.9658,1.5294,5.5781,3.8381,7.0994-.497-.6845-.8712-1.4609-1.095-2.3001-1.0869-1.3016-1.7431-2.9747-1.7431-4.7993Zm6.9956-3.8329c-.0241-2.9039-2.1907-5.3776-4.9565-5.6412-1.9424-.188-3.7793.6284-4.9385,2.1738-.166.2212-.1221.5347.0996.7002.2207.1655.5352.1216.6992-.0996.9502-1.2642,2.4609-1.9292,4.0439-1.7793,2.2754.2173,4.0566,2.2788,4.0566,4.6938v.2548c.3218-.1237.6531-.2271.9956-.3025Zm2.0044-.1671v.0253c.3404.0243.6747.0693,1,.1406v-.166c0-1.4941-.3936-2.9639-1.1377-4.2505-.1387-.2393-.4473-.3213-.6826-.1821-.2393.1382-.3213.4438-.1826.6831.6562,1.1343,1.0029,2.4312,1.0029,3.7495Z"/></svg>