<?xml version="1.0" encoding="UTF-8"?><svg id="a" xmlns="http://www.w3.org/2000/svg" width="24" height="24" viewBox="0 0 24 24"><path d="m22.2236,13.5525l-4-2c-.1406-.0703-.3066-.0703-.4473,0l-4,2c-.1694.085-.2764.2578-.2764.4473,0,3.2871,1.5703,6.4272,4.2002,8.3999.0889.0669.1943.1001.2998.1001s.2109-.0332.2998-.1001c2.6299-1.9727,4.2002-5.1128,4.2002-8.3999,0-.1895-.1069-.3623-.2764-.4473Zm-4.2236,7.8125c-2.1191-1.7285-3.4053-4.3237-3.4951-7.0586l3.4951-1.7476,3.4951,1.7476c-.0898,2.7349-1.376,5.3301-3.4951,7.0586Zm-9.5674.0825c-.0923.1602-.2603.2495-.4331.2495-.085,0-.1709-.0215-.25-.0674-2.0044-1.1597-3.2495-3.3169-3.2495-5.6299v-6c0-.2764.2236-.5.5-.5s.5.2236.5.5v6c0,1.9575,1.0537,3.7832,2.7505,4.7646.2388.1382.3208.4438.1821.6831ZM2.5,10.2737v3.2964c0,.2764-.2236.5-.5.5s-.5-.2236-.5-.5v-3.2964C1.5,5.6521,4.9854,1.8059,9.4351,1.5178c1.6924-.1074,3.3608.2778,4.8154,1.1196.2388.1382.3208.4438.1821.6831-.1377.2383-.4438.3203-.6831.1821-1.2832-.7417-2.7524-1.084-4.25-.9868-3.9248.2544-6.9995,3.6616-6.9995,7.7578Zm13.9971-4.0234c-.1387-.2393-.0566-.5449.1821-.6831.2388-.1406.5449-.0571.6831.1821.7441,1.2866,1.1377,2.7563,1.1377,4.2505v.0684c-.3286-.085-.6714-.0849-1,0v-.0685c0-1.3184-.3467-2.6152-1.0029-3.7495Zm-1.9971,5.2632v-1.2988c0-2.415-1.7817-4.4766-4.0562-4.6938-1.5835-.1523-3.0942.5142-4.0439,1.7793-.1655.2212-.4795.2642-.7002.0996-.2207-.166-.2651-.4795-.0996-.7002,1.1606-1.5454,3.0044-2.3643,4.9385-2.1738,2.7822.2651,4.9614,2.7642,4.9614,5.689v.7988l-1,.5Zm.0449,9.842c.304.3922.6299.767.9821,1.1204-4.4665-.2477-8.027-3.9487-8.027-8.4761v-4c0-.7344.3213-1.4287.8809-1.9048.5605-.4756,1.3037-.6772,2.0352-.5615,1.188.1929,2.084,1.2993,2.084,2.5732v2.598c-.3077.3571-.5.8071-.5,1.2951,0,1.1931.1997,2.363.543,3.4848-.6501-.6444-1.043-1.5307-1.043-2.4848v-4.8931c0-.7891-.5347-1.4707-1.2441-1.5859-.4482-.0713-.8857.0464-1.2271.3359-.3359.2856-.5288.7026-.5288,1.1431v4c0,3.6378,2.6036,6.6761,6.0449,7.3557Z"/></svg>