<?xml version="1.0" encoding="UTF-8"?><svg id="a" xmlns="http://www.w3.org/2000/svg" width="24" height="24" viewBox="0 0 24 24"><path d="m20.6738,17.5008l1.373-1.3726c.292-.2925.4531-.6807.4531-1.0938,0-.4136-.1611-.8018-.4531-1.0938l-.9863-.9873c-.6035-.6011-1.584-.6035-2.1875.0005l-1.373,1.373-1.373-1.3735c-.6035-.6011-1.584-.6035-2.1875.0005l-.9863.9863c-.292.2925-.4531.6807-.4531,1.0938,0,.4136.1611.8018.4531,1.0938l1.373,1.373-1.373,1.3726c-.292.2925-.4531.6812-.4531,1.0947,0,.4131.1611.8013.4531,1.0928l.9863.9873c.3018.3008.6973.4517,1.0938.4517.3955-.0005.792-.1509,1.0938-.4521l1.373-1.373,1.373,1.3735c.6025.6001,1.583.6025,2.1875-.0005l.9863-.9863c.292-.2925.4531-.6807.4531-1.0942,0-.4131-.1611-.8013-.4531-1.0933l-1.373-1.373Zm.666,2.853l-.9863.9863c-.2129.2139-.5605.2134-.7734.0005l-1.7266-1.7266c-.1953-.1953-.5117-.1953-.707,0l-1.7266,1.7261c-.2139.2139-.5615.2124-.7734.0005l-.9863-.9873c-.1035-.103-.1602-.2397-.1602-.3857s.0566-.2832.1602-.3867l1.7266-1.7266c.1953-.1953.1953-.5117,0-.707l-1.7266-1.7271c-.1035-.103-.1602-.2402-.1602-.3862s.0566-.2832.1602-.3867l.9863-.9858c.1064-.1069.2471-.1602.3867-.1602s.2803.0532.3867.1597l1.7266,1.7266c.1953.1953.5117.1953.707,0l1.7266-1.7261c.2139-.2148.5615-.2134.7734-.0005l.9863.9873c.1035.103.1602.2402.1602.3862,0,.1455-.0566.2827-.1602.3862l-1.7266,1.7266c-.1953.1953-.1953.5117,0,.707l1.7266,1.7271c.1035.103.1602.2402.1602.3857,0,.146-.0566.2832-.1602.3867Zm-12.9072,1.0947c-.0928.1602-.2607.2495-.4326.2495-.085,0-.1719-.0215-.25-.0674-2.0049-1.1592-3.25-3.3164-3.25-5.6299v-6c0-.2764.2236-.5.5-.5s.5.2236.5.5v6c0,1.9575,1.0537,3.7832,2.75,4.7646.2393.1382.3213.4438.1826.6831ZM2.5,10.2748v3.2964c0,.2764-.2236.5-.5.5s-.5-.2236-.5-.5v-3.2964C1.5,5.6532,4.9854,1.807,9.4355,1.5189c1.6865-.1118,3.3594.2778,4.8154,1.1196.2383.1382.3203.4443.1816.6831-.1396.2402-.4463.3193-.6836.1821-1.2822-.7422-2.7549-1.0845-4.249-.9868-3.9248.2544-7,3.6616-7,7.7578Zm12,.7792v-.8383c0-2.415-1.7812-4.4766-4.0566-4.6938-1.583-.1499-3.0938.5156-4.0439,1.7793-.165.2212-.4785.2646-.6992.0996-.2217-.1655-.2656-.479-.0996-.7002,1.1592-1.5454,2.9932-2.3647,4.9385-2.1738,2.7812.2651,4.9609,2.7642,4.9609,5.689v.832c-.3318-.0511-.6692-.052-1,.0063Zm1.9971-4.8026c-.1387-.2393-.0566-.5449.1826-.6831.2363-.1401.543-.0581.6826.1821.7441,1.2866,1.1377,2.7563,1.1377,4.2505v1.3926c-.2448.1349-.4802.2927-.6875.5l-.3125.312v-2.2046c0-1.3184-.3467-2.6152-1.0029-3.7495Zm-3.9971,6.021l-.6074.6074c-.1492.1491-.2792.3118-.3926.4839v-3.2559c0-.7891-.5352-1.4707-1.2441-1.5859-.4521-.0742-.8867.0454-1.2275.3359-.3359.2856-.5283.7026-.5283,1.1431v4c0,2.1989.9545,4.2117,2.5349,5.6073-.014.1198-.035.238-.0349.3605,0,.3521.0702.691.1839,1.0131-2.2739-1.5631-3.6839-4.1334-3.6839-6.9808v-4c0-.7344.3213-1.4287.8809-1.9048.5596-.4756,1.3057-.6772,2.0352-.5615,1.1885.1929,2.084,1.2993,2.084,2.5732v2.1646Z"/></svg>