<?xml version="1.0" encoding="UTF-8"?><svg id="a" xmlns="http://www.w3.org/2000/svg" width="24" height="24" viewBox="0 0 24 24"><path d="m11.0327,20.6885c-.0923.1602-.2603.2495-.4331.2495-.085,0-.1709-.0215-.25-.0674-1.4492-.8379-2.3496-2.3979-2.3496-4.0708v-4.1997c0-.2764.2236-.5.5-.5s.5.2236.5.5v4.1997c0,1.3169.709,2.5454,1.8506,3.2056.2388.1382.3208.4438.1821.6831Zm4.4673-4.4385c.2764,0,.5-.2236.5-.5v-2.9995c0-2.1235-1.585-3.9385-3.6089-4.1318-1.4033-.1387-2.7471.4565-3.5913,1.5811-.1655.2207-.1211.5342.0996.7002.2207.165.5332.1216.7002-.0996.6333-.8438,1.6387-1.2881,2.6968-1.1865,1.5161.145,2.7036,1.5229,2.7036,3.1367v2.9995c0,.2764.2236.5.5.5Zm-3.8403-8.7388c1.0151-.0659,2.0166.166,2.8901.6709.2393.1387.5449.0562.6831-.1821.1387-.2393.0566-.5449-.1821-.6831-1.0449-.6045-2.2407-.8813-3.4556-.8037-3.1938.2065-5.6953,2.9644-5.6953,6.2788v2.3071c0,.2764.2236.5.5.5s.5-.2236.5-.5v-2.3071c0-2.7886,2.0908-5.1084,4.7598-5.2808Zm4.9404,1.856c-.2388.1382-.3208.4438-.1821.6831.4463.7715.6821,1.6533.6821,2.5498v3.5c0,.8823-.7178,1.6001-1.6001,1.6001s-1.6001-.7178-1.6001-1.6001v-3.4253c0-.9644-.6812-1.8022-1.585-1.9492-.5571-.0889-1.1206.0654-1.5454.4268-.4253.3618-.6694.8896-.6694,1.4478v2.7998c0,3.3638,2.7363,6.1001,6.1001,6.1001.2764,0,.5-.2236.5-.5s-.2236-.5-.5-.5c-2.812,0-5.1001-2.2881-5.1001-5.1001v-2.7998c0-.2646.1157-.5146.3174-.686.2046-.1748.4644-.248.7373-.2012.4248.0688.7451.4824.7451.9619v3.4253c0,1.4336,1.1665,2.6001,2.6001,2.6001s2.6001-1.1665,2.6001-2.6001v-3.5c0-1.0723-.2822-2.127-.8169-3.0508-.1377-.2393-.4434-.3218-.6831-.1821ZM12,1.5C6.2104,1.5,1.5,6.2104,1.5,12v10c0,.2764.2236.5.5.5s.5-.2236.5-.5v-10C2.5,6.7617,6.7617,2.5,12,2.5s9.5,4.2617,9.5,9.5v10c0,.2764.2236.5.5.5s.5-.2236.5-.5v-10c0-5.7896-4.7104-10.5-10.5-10.5Z"/></svg>