<?xml version="1.0" encoding="UTF-8"?><svg id="a" xmlns="http://www.w3.org/2000/svg" width="24" height="24" viewBox="0 0 24 24"><path d="m8.4326,21.4481c-.0928.1602-.2607.2495-.4326.2495-.085,0-.1719-.0215-.25-.0674-2.0049-1.1592-3.25-3.3164-3.25-5.6299v-6c0-.2764.2236-.5.5-.5s.5.2236.5.5v6c0,1.9575,1.0537,3.7832,2.75,4.7646.2393.1382.3213.4438.1826.6831Zm1.0674-18.9316c1.4961-.0977,2.9668.2446,4.249.9868.2363.1372.5439.0581.6836-.1821.1387-.2388.0566-.5449-.1816-.6831-1.4561-.8418-3.1289-1.2314-4.8154-1.1196C4.9854,1.8065,1.5,5.6527,1.5,10.2743v3.2964c0,.2764.2236.5.5.5s.5-.2236.5-.5v-3.2964c0-4.0962,3.0752-7.5034,7-7.7578Zm13,15.4839v2c0,1.3784-1.1211,2.5-2.5,2.5h-4c-1.3789,0-2.5-1.1216-2.5-2.5v-2c0-1.2072.86-2.2171,2-2.4494v-1.5506c0-1.3784,1.1211-2.5,2.5-2.5s2.5,1.1216,2.5,2.5v1.5506c1.14.2323,2,1.2422,2,2.4494Zm-6-2.5h3v-1.5c0-.8271-.6729-1.5-1.5-1.5s-1.5.6729-1.5,1.5v1.5Zm5,2.5c0-.8271-.6729-1.5-1.5-1.5h-4c-.8271,0-1.5.6729-1.5,1.5v2c0,.8271.6729,1.5,1.5,1.5h4c.8271,0,1.5-.6729,1.5-1.5v-2Zm-4-8v.0505c.1656-.021.3288-.0505.5-.0505s.3344.0295.5.0505v-.0505c0-1.4941-.3936-2.9639-1.1377-4.2505-.1387-.2402-.4473-.3223-.6826-.1821-.2393.1382-.3213.4438-.1826.6831.6562,1.1343,1.0029,2.4312,1.0029,3.7495Zm-3,2.1036c.2531-.4648.5912-.8702,1-1.2009v-.6879c0-2.9248-2.1797-5.4238-4.9609-5.689-1.9424-.1909-3.7793.6284-4.9385,2.1738-.166.2212-.1221.5347.0996.7002.2207.165.5352.1216.6992-.0996.9502-1.2637,2.4609-1.9292,4.0439-1.7793,2.2754.2173,4.0566,2.2788,4.0566,4.6938v1.8888Zm-2.3667,4.8913c.1106-.4189.2913-.8073.524-1.1601-.0951-.2667-.1573-.5461-.1573-.8348v-4.8931c0-1.2739-.8955-2.3804-2.084-2.5732-.7285-.1157-1.4746.0859-2.0352.5615-.5596.4761-.8809,1.1704-.8809,1.9048v4c0,3.3444,1.9499,6.3165,4.89,7.6939-.1949-.4134-.3117-.8647-.3542-1.3403-2.1505-1.3419-3.5358-3.7115-3.5358-6.3536v-4c0-.4404.1924-.8574.5283-1.1431.3408-.2905.7754-.4102,1.2275-.3359.709.1152,1.2441.7969,1.2441,1.5859v4.8931c0,.72.2289,1.4134.6333,1.9949Z"/></svg>