<?xml version="1.0" encoding="UTF-8"?><svg id="a" xmlns="http://www.w3.org/2000/svg" width="24" height="24" viewBox="0 0 24 24"><path d="m10.4326,21.448c-.0928.1602-.2607.2495-.4326.2495-.085,0-.1719-.0215-.25-.0674-2.0049-1.1592-3.25-3.3164-3.25-5.6299v-6c0-.2764.2236-.5.5-.5s.5.2236.5.5v6c0,1.9575,1.0537,3.7832,2.75,4.7646.2393.1382.3213.4438.1826.6831Zm6.5674-6.4478c.2764,0,.5-.2236.5-.5v-4.2852c0-2.9248-2.1797-5.4238-4.9609-5.689-1.9453-.188-3.7793.6284-4.9385,2.1738-.166.2212-.1221.5347.0996.7002.2197.1655.5342.1216.6992-.0996.9502-1.2642,2.4609-1.9292,4.0439-1.7793,2.2754.2173,4.0566,2.2788,4.0566,4.6938v4.2852c0,.2764.2236.5.5.5ZM11.5,2.5164c1.4951-.0991,2.9668.2441,4.249.9868.2363.1377.5439.0576.6836-.1821.1387-.2388.0566-.5449-.1816-.6831-1.4561-.8423-3.1289-1.231-4.8154-1.1196-4.4502.2881-7.9355,4.1343-7.9355,8.7559v3.2964c0,.2764.2236.5.5.5s.5-.2236.5-.5v-3.2964c0-4.0962,3.0752-7.5034,7-7.7578Zm7.8623,3.2334c-.1387-.2393-.4482-.3213-.6826-.1821-.2393.1382-.3213.4438-.1826.6831.6562,1.1343,1.0029,2.4312,1.0029,3.7495v5c0,1.3784-1.1211,2.5-2.5,2.5s-2.5-1.1216-2.5-2.5v-4.8931c0-1.2739-.8955-2.3804-2.084-2.5732-.7285-.1167-1.4746.0854-2.0352.5615-.5596.4761-.8809,1.1704-.8809,1.9048v4c0,4.687,3.8135,8.5,8.5,8.5.2764,0,.5-.2236.5-.5s-.2236-.5-.5-.5c-4.1357,0-7.5-3.3643-7.5-7.5v-4c0-.4404.1924-.8574.5283-1.1431.3408-.2905.7773-.4102,1.2275-.3359.709.1152,1.2441.7969,1.2441,1.5859v4.8931c0,1.9297,1.5703,3.5,3.5,3.5s3.5-1.5703,3.5-3.5v-5c0-1.4941-.3936-2.9639-1.1377-4.2505Z"/></svg>