<?xml version="1.0" encoding="UTF-8"?><svg id="a" xmlns="http://www.w3.org/2000/svg" width="24" height="24" viewBox="0 0 24 24"><path d="m8.4326,21.4479c-.0923.1602-.2603.2495-.4331.2495-.085,0-.1709-.0215-.25-.0674-2.0044-1.1597-3.2495-3.3169-3.2495-5.6299v-6c0-.2764.2236-.5.5-.5s.5.2236.5.5v6c0,1.9575,1.0537,3.7832,2.7505,4.7646.2388.1382.3208.4438.1821.6831Zm1.0669-18.9316c1.4995-.0952,2.9673.2451,4.25.9868.2393.1387.5449.0566.6831-.1821.1387-.2393.0566-.5449-.1821-.6831-1.4541-.8418-3.125-1.23-4.8154-1.1196C4.9854,1.8063,1.5,5.6525,1.5,10.2741v3.2964c0,.2764.2236.5.5.5s.5-.2236.5-.5v-3.2964c0-4.0962,3.0747-7.5034,6.9995-7.7578Zm8.0005,8.9839c1.6543,0,3,1.3457,3,3s-1.3457,3-3,3-3-1.3457-3-3,1.3457-3,3-3Zm0,1c-1.103,0-2,.897-2,2s.897,2,2,2,2-.897,2-2-.897-2-2-2Zm2.5,6h-5c-1.3784,0-2.5,1.1216-2.5,2.5v1c0,.2764.2236.5.5.5s.5-.2236.5-.5v-1c0-.8271.6729-1.5,1.5-1.5h5c.8271,0,1.5.6729,1.5,1.5v1c0,.2764.2236.5.5.5s.5-.2236.5-.5v-1c0-1.3784-1.1216-2.5-2.5-2.5Zm-7.2102-.8089c.3192-.2117.6704-.3781,1.0444-.4931-.7895-.4207-1.3342-1.2427-1.3342-2.198v-4.8931c0-1.2739-.896-2.3804-2.084-2.5732-.7324-.1147-1.4746.0854-2.0352.5615-.5596.4761-.8809,1.1704-.8809,1.9048v4c0,2.739,1.3256,5.2858,3.5106,6.874.0126-.3925.0771-.7711.1959-1.1262-1.6889-1.4112-2.7065-3.5023-2.7065-5.7477v-4c0-.4404.1929-.8574.5288-1.1431.3413-.29.7778-.4087,1.2271-.3359.7095.1152,1.2441.7969,1.2441,1.5859v4.8931c0,1.0875.5091,2.0486,1.2898,2.6911Zm-2.2512-13.1652c-1.9326-.187-3.7778.6284-4.9385,2.1738-.1655.2207-.1211.5342.0996.7002.2207.1646.5347.1206.7002-.0996.9492-1.2651,2.4634-1.9346,4.0439-1.7793,2.2744.2173,4.0562,2.2788,4.0562,4.6938v.9556c.3-.2705.6354-.4977,1-.6804v-.2752c0-2.9248-2.1792-5.4238-4.9614-5.689Zm6.9614,5.4741c.3448,0,.6772.0471,1,.1208v-.1208c0-1.4941-.3936-2.9639-1.1377-4.2505-.1382-.2393-.4443-.3228-.6831-.1821-.2388.1382-.3208.4438-.1821.6831.6562,1.1343,1.0029,2.4312,1.0029,3.7495Z"/></svg>