<?xml version="1.0" encoding="UTF-8"?><svg id="a" xmlns="http://www.w3.org/2000/svg" width="24" height="24" viewBox="0 0 24 24"><path d="m8.433,21.4475c-.0923.1602-.2603.2495-.4331.2495-.085,0-.1709-.0215-.25-.0674-2.0044-1.1597-3.2495-3.3169-3.2495-5.6299v-6c0-.2764.2236-.5.5-.5s.5.2236.5.5v6c0,1.9575,1.0537,3.7832,2.7505,4.7646.2388.1382.3208.4438.1821.6831Zm1.0669-18.9316c1.4995-.0972,2.9673.2451,4.2505.9868.2334.1372.543.0581.6826-.1821.1387-.2393.0566-.5449-.1826-.6831-1.4536-.8418-3.1211-1.2271-4.8149-1.1196C4.9857,1.8059,1.5004,5.6521,1.5004,10.2737v3.2964c0,.2764.2236.5.5.5s.5-.2236.5-.5v-3.2964c0-4.0962,3.0747-7.5034,6.9995-7.7578Zm12.6167,14.397l-5.2031,5.2026c-.2471.2476-.5762.3843-.9268.3843s-.6797-.1362-.9277-.3838l-3.1743-3.1753c-.2476-.2471-.3843-.5767-.3843-.9268s.1367-.6797.3843-.9272l1.147-1.147c.4941-.4951,1.3584-.4956,1.8545-.0005l1.1006,1.1011,3.1279-3.1284c.4961-.4961,1.3604-.4951,1.8545,0l1.1475,1.147c.5107.5117.5107,1.3433,0,1.854Zm-.707-1.147l-1.1475-1.147c-.1172-.1182-.3232-.1177-.4404.0005l-3.4814,3.4814c-.1875.1875-.5195.1875-.707,0l-1.4541-1.4541c-.0586-.0586-.1377-.0913-.2207-.0913s-.1611.0322-.2197.0913l-1.147,1.147c-.0586.0591-.0913.1372-.0913.2202s.0322.1606.0913.2192l3.1743,3.1753c.1172.1172.3232.1182.4404,0l5.2031-5.2026c.1211-.1211.1211-.3188,0-.4399Zm-11.3528,2.8087c-.9826-1.278-1.5564-2.8717-1.5564-4.5748v-4c0-.4404.1929-.8574.5288-1.1431.3413-.2896.7778-.4072,1.2271-.3359.7095.1152,1.2441.7969,1.2441,1.5859v4.8931c0,.1089.0174.2153.0273.3228l.4434-.4434c.159-.1594.3398-.287.5293-.3986v-4.3738c0-1.2739-.896-2.3804-2.084-2.5732-.7305-.1157-1.4751.0859-2.0352.5615-.5596.4761-.8809,1.1704-.8809,1.9048v4c0,3.4313,2.0513,6.472,5.1205,7.799l-1.7973-1.7975c-.3958-.3954-.6586-.8893-.7668-1.4267Zm5.4436-4.0515v-4.3084c0-2.9248-2.1797-5.4238-4.9614-5.689-1.9355-.1904-3.7778.6284-4.9385,2.1738-.1655.2207-.1211.5342.0996.7002.2207.1646.5347.1216.7002-.0996.9492-1.2651,2.4629-1.9316,4.0439-1.7793,2.2744.2173,4.0562,2.2788,4.0562,4.6938v3.9173c.3533.0653.6942.1965,1,.3911Zm2-4.5233v3.4053l.5537-.5537c.1367-.1366.287-.2544.4463-.3558v-2.4957c0-1.4941-.3936-2.9639-1.1377-4.2505-.1387-.2402-.4473-.3223-.6826-.1821-.2393.1382-.3213.4438-.1826.6831.6562,1.1343,1.0029,2.4312,1.0029,3.7495Z"/></svg>