<?xml version="1.0" encoding="UTF-8"?><svg id="a" xmlns="http://www.w3.org/2000/svg" width="24" height="24" viewBox="0 0 24 24"><path d="m8.4326,21.4475c-.0923.1602-.2603.2495-.4331.2495-.085,0-.1709-.0215-.25-.0674-2.0044-1.1597-3.2495-3.3169-3.2495-5.6299v-6c0-.2764.2236-.5.5-.5s.5.2236.5.5v6c0,1.9575,1.0537,3.7832,2.7505,4.7646.2388.1382.3208.4438.1821.6831Zm1.0669-18.9316c1.4995-.0972,2.9673.2451,4.25.9868.2393.1382.5449.0562.6831-.1821.1387-.2393.0566-.5449-.1821-.6831-1.4541-.8418-3.125-1.2271-4.8154-1.1196C4.9854,1.8059,1.5,5.6521,1.5,10.2737v3.2964c0,.2764.2236.5.5.5s.5-.2236.5-.5v-3.2964c0-4.0962,3.0747-7.5034,6.9995-7.7578Zm13.0005,14.4839c0,3.0327-2.4673,5.5-5.5,5.5s-5.5-2.4673-5.5-5.5,2.4673-5.5,5.5-5.5,5.5,2.4673,5.5,5.5Zm-1,0c0-2.4814-2.0186-4.5-4.5-4.5s-4.5,2.0186-4.5,4.5,2.0186,4.5,4.5,4.5,4.5-2.0186,4.5-4.5Zm-2.8535-1.687l-2.313,2.3135-.98-.98c-.1953-.1953-.5117-.1953-.707,0s-.1953.5117,0,.707l1.3335,1.3335c.0938.0938.2207.1465.3535.1465s.2598-.0527.3535-.1465l2.6665-2.667c.1953-.1953.1953-.5117,0-.707s-.5117-.1953-.707,0Zm-10.1465-1.313v-4c0-.4404.1929-.8574.5288-1.1431.3413-.2896.7778-.4072,1.2271-.3359.7095.1152,1.2441.7969,1.2441,1.5859v2.5774c.298-.3789.6315-.728,1-1.0383v-1.5391c0-1.2739-.896-2.3804-2.084-2.5732-.7324-.1157-1.4746.0859-2.0352.5615-.5596.4761-.8809,1.1704-.8809,1.9048v4c0,2.9659,1.5293,5.5783,3.8383,7.0995-.4971-.6846-.8714-1.4609-1.0952-2.3003-1.0869-1.3016-1.7431-2.9747-1.7431-4.7993Zm6.9956-3.8329c-.0241-2.9039-2.1902-5.3776-4.957-5.6412-1.9326-.1904-3.7778.6284-4.9385,2.1738-.1655.2207-.1211.5342.0996.7002.2207.1646.5347.1216.7002-.0996.9492-1.2651,2.4634-1.9316,4.0439-1.7793,2.2744.2173,4.0562,2.2788,4.0562,4.6938v.2548c.3218-.1237.6531-.2271.9956-.3025Zm2.0044-.1671v.0253c.3404.0243.6747.0693,1,.1406v-.166c0-1.4941-.3936-2.9639-1.1377-4.2505-.1382-.2393-.4443-.3228-.6831-.1821-.2388.1382-.3208.4438-.1821.6831.6562,1.1343,1.0029,2.4312,1.0029,3.7495Z"/></svg>