<?xml version="1.0" encoding="UTF-8"?><svg id="a" xmlns="http://www.w3.org/2000/svg" width="24" height="24" viewBox="0 0 24 24"><path d="m20.9645,8.3393c-.1851-1.79-1.1714-3.3926-2.7061-4.397-1.9932-1.3047-4.6475-1.2534-6.604.1299-2.1641,1.5298-3.0591,4.2598-2.2446,6.7363l-5.6226,5.6221c-.5054.5063-.7837,1.1787-.7837,1.8936v2.1777c0,.2764.2236.5.5.5h2.1772c.7051,0,1.395-.2856,1.894-.7847l.1318-.1323c.1948-.1953.1943-.5112,0-.7065-.2295-.2295-.23-.603-.001-.832.1592-.1587.3887-.2153.603-.1431.498.1621,1.0698.0098,1.4839-.4038l.4463-.4468c.415-.4141.5698-.9829.4043-1.4849-.0703-.2129-.0156-.4434.1426-.6016.2295-.2295.6035-.2295.833,0,.1875.1875.5195.1875.707,0l.8706-.8711c2.125.6973,4.4692.1504,6.0586-1.439,1.271-1.271,1.894-3.0269,1.7095-4.8169Zm-2.4165,4.1099c-1.3867,1.3867-3.4668,1.8198-5.2988,1.1025-.1831-.0708-.3955-.0288-.5356.1123l-.7979.7979c-.5879-.2944-1.3584-.1816-1.8369.2974-.4268.4268-.5742,1.0483-.3853,1.6216.0449.1367-.0195.3228-.1611.4644l-.4468.4473c-.1411.1416-.3267.2056-.4639.1611-.5728-.1899-1.1948-.042-1.6226.3853-.4917.4917-.5928,1.2285-.3037,1.8213-.29.2192-.6489.3418-1.0146.3418h-1.6772v-1.6777c0-.4478.1743-.8696.4912-1.1865l5.8462-5.8462c.1406-.1406.1846-.3506.1123-.5356-.832-2.1265-.1006-4.5391,1.7783-5.8672,1.6245-1.1475,3.8252-1.1919,5.479-.1094,1.2817.8389,2.105,2.1738,2.2588,3.6631.1543,1.4888-.3643,2.9497-1.4214,4.0068Zm-2.4961-3.4958c0,.5523-.4477,1-1,1s-1-.4477-1-1,.4477-1,1-1,1,.4477,1,1Z"/></svg>