<?xml version="1.0" encoding="UTF-8"?><svg id="a" xmlns="http://www.w3.org/2000/svg" width="24" height="24" viewBox="0 0 24 24"><path d="m22.3535,16.6465l-1.4141-1.4141c-.4717-.4722-1.0996-.7324-1.7676-.7324h-7.2773c-1.0938-2.1396-3.4531-3.333-5.8652-2.9165-2.1836.3755-3.9551,2.0776-4.4062,4.2358v.0005c-.3467,1.6611.0566,3.3545,1.1064,4.647,1.0508,1.292,2.6074,2.0332,4.2705,2.0332,2.0713,0,3.957-1.167,4.8945-3h1.1055c.2764,0,.5-.2236.5-.5,0-.2759.2246-.5.5-.5.1904,0,.3613.1055.4473.2764.2256.4463.71.7236,1.2627.7236h.5801c.5527,0,1.0371-.2773,1.2637-.7246.085-.1699.2559-.2754.4463-.2754.2754,0,.5.2241.5.5,0,.2764.2236.5.5.5h.1719c.668,0,1.2949-.2603,1.7676-.7324l1.4141-1.4141c.1953-.1953.1953-.5117,0-.707Zm-2.1211,1.4141c-.2236.2231-.5156.3706-.8252.4204-.2109-.5723-.7627-.981-1.4072-.981-.5703,0-1.084.3164-1.3398.8252-.0518.103-.2041.1748-.3701.1748h-.5801c-.166,0-.3184-.0718-.3691-.1738-.2568-.5098-.7705-.8262-1.3408-.8262-.6523,0-1.208.418-1.4141,1h-1.0078c-.1982,0-.3779.1177-.458.2993-.7188,1.6406-2.3359,2.7007-4.1201,2.7007-1.3613,0-2.6348-.6064-3.4941-1.6641s-1.1895-2.4468-.9043-3.8115c.3682-1.7603,1.8145-3.1489,3.5977-3.4556,2.0576-.353,4.0869.7271,4.9209,2.6318.0801.1816.2598.2993.458.2993h7.5938c.4004,0,.7773.1558,1.0605.4395l1.0605,1.0605-1.0605,1.0605Zm-12.2324-1.0605c0,.5522-.4477,1-1,1s-1-.4478-1-1,.4478-1,1-1,1,.4477,1,1Zm-.5-8.5921v1.6285c.3391.025.6724.0732,1,.1455v-1.774c.5807-.2071,1-.7569,1-1.4079,0-.8271-.6729-1.5-1.5-1.5s-1.5.6729-1.5,1.5c0,.651.4193,1.2008,1,1.4079Zm.5-1.9079c.2754,0,.5.2241.5.5s-.2246.5-.5.5-.5-.2241-.5-.5.2246-.5.5-.5Zm7.5,1.9079v4.5921h1v-4.5921c.5807-.2071,1-.7569,1-1.4079,0-.8271-.6729-1.5-1.5-1.5s-1.5.6729-1.5,1.5c0,.651.4193,1.2008,1,1.4079Zm.5-1.9079c.2754,0,.5.2241.5.5s-.2246.5-.5.5-.5-.2241-.5-.5.2246-.5.5-.5Zm-.5-2.5c0-.2762.2239-.5.5-.5s.5.2238.5.5-.2239.5-.5.5-.5-.2239-.5-.5Zm4-2c0-.2762.2239-.5.5-.5s.5.2238.5.5-.2239.5-.5.5-.5-.2239-.5-.5ZM3.5,2c0-.2762.2239-.5.5-.5s.5.2238.5.5-.2239.5-.5.5-.5-.2239-.5-.5Zm4,2c0-.2762.2239-.5.5-.5s.5.2238.5.5-.2239.5-.5.5-.5-.2239-.5-.5Zm13,8v1.2408c-.3204-.113-.6552-.1807-1-.2088v-1.032c0-.2764.2236-.5.5-.5s.5.2236.5.5Zm-3,1h1v-2.6909l1.7236-.8618c.1689-.085.2764-.2578.2764-.4473v-2.5921c.5807-.2071,1-.7569,1-1.4079,0-.8271-.6729-1.5-1.5-1.5s-1.5.6729-1.5,1.5c0,.651.4193,1.2008,1,1.4079v2.283l-1.7236.8618c-.1689.085-.2764.2578-.2764.4473v3Zm2.5-8.5c.2754,0,.5.2241.5.5s-.2246.5-.5.5-.5-.2241-.5-.5.2246-.5.5-.5Zm-6.5,7.5c0-.2764.2236-.5.5-.5s.5.2236.5.5v1h-1v-1Zm-1,0c0,.1762-.0966.3237-.2343.4128-.2116-.2429-.4382-.4683-.679-.6777.089-.1382.2367-.235.4133-.235.2761,0,.5.2238.5.5Zm-3-1.5202c.3452.1323.6807.2857,1,.4702v-.6409l1.7236-.8618c.1689-.085.2764-.2578.2764-.4473v-4.5921c.5807-.2071,1-.7569,1-1.4079,0-.8271-.6729-1.5-1.5-1.5s-1.5.6729-1.5,1.5c0,.651.4193,1.2008,1,1.4079v4.283l-1.7236.8618c-.1689.085-.2764.2578-.2764.4473v.4798Zm2.5-7.9798c.2754,0,.5.2241.5.5s-.2246.5-.5.5-.5-.2241-.5-.5.2246-.5.5-.5Zm-6.5,7.5c0-.2762.2239-.5.5-.5s.5.2238.5.5c0,.0123-.0061.0226-.007.0346-.2388.0164-.4774.0293-.7177.0704-.0828.0142-.1601.0438-.2419.061-.0187-.0524-.0335-.1071-.0335-.166Zm-3,1.6531v-1.3441l1.7236-.8618c.1689-.085.2764-.2578.2764-.4473v-2.5921c.5807-.2071,1-.7569,1-1.4079,0-.8271-.6729-1.5-1.5-1.5s-1.5.6729-1.5,1.5c0,.651.4193,1.2008,1,1.4079v2.283l-1.7236.8618c-.1689.085-.2764.2578-.2764.4473v2.6635c.2951-.3729.636-.7043,1-1.0104Zm1.5-7.1531c.2754,0,.5.2241.5.5s-.2246.5-.5.5-.5-.2241-.5-.5.2246-.5.5-.5Z"/></svg>