<?xml version="1.0" encoding="UTF-8"?><svg id="a" xmlns="http://www.w3.org/2000/svg" width="24" height="24" viewBox="0 0 24 24"><path d="m15.4653,2.7288c-1.2915-1.0503-2.9858-1.4541-4.6465-1.106-2.1582.4502-3.8608,2.2212-4.2363,4.4062-.4141,2.4077.7773,4.7715,2.9165,5.8643v7.2773c0,.6675.2603,1.2949.7324,1.7681l1.4141,1.4141c.0977.0977.2256.1465.3535.1465s.2559-.0488.3535-.1465l1.4141-1.4141c.4722-.4722.7324-1.1001.7324-1.7681v-.1714c0-.2764-.2236-.5-.5-.5-.2759,0-.5-.2241-.5-.5,0-.1899.1055-.3613.2759-.4473.4468-.2251.7241-.709.7241-1.2627v-.5806c0-.5537-.2773-1.0376-.7241-1.2627-.1704-.0854-.2759-.2568-.2759-.4468,0-.2759.2241-.5.5-.5.2764,0,.5-.2236.5-.5v-1.106c1.833-.9365,3-2.8228,3-4.894,0-1.6636-.7412-3.2202-2.0337-4.2705Zm-1.667,8.3906c-.1816.0796-.2993.2593-.2993.458v1.0073c-.582.2065-1,.7627-1,1.4146,0,.5698.3164,1.0835.8262,1.3403.1021.0513.1738.2031.1738.3691v.5806c0,.166-.0718.3184-.1743.3696-.5093.2568-.8257.7705-.8257,1.3403,0,.645.4092,1.1963.9814,1.4077-.0488.311-.1938.5977-.4209.8247l-1.0605,1.0605-1.0601-1.0605c-.2837-.2837-.4399-.6606-.4399-1.061v-7.5933c0-.1987-.1177-.3784-.2993-.458-1.9043-.8335-2.9863-2.8574-2.6318-4.9214.3066-1.7837,1.6953-3.229,3.4551-3.5967.3223-.0669.6455-.1001.9653-.1001,1.0366,0,2.0386.3472,2.8467,1.0039,1.0576.8594,1.6641,2.1328,1.6641,3.4941,0,1.7847-1.0601,3.4019-2.7007,4.1201Zm-.7993-4.1201c0,.5522-.4477,1-1,1s-1-.4478-1-1,.4477-1,1-1,1,.4477,1,1Z"/></svg>