<?xml version="1.0" encoding="UTF-8"?><svg id="a" xmlns="http://www.w3.org/2000/svg" width="24" height="24" viewBox="0 0 24 24"><path d="m22.2236,12.5527l-4-2c-.1406-.0703-.3066-.0703-.4473,0l-4,2c-.1689.085-.2764.2578-.2764.4473,0,3.2871,1.5703,6.4272,4.2002,8.3999.0889.0669.1943.1001.2998.1001s.2109-.0332.2998-.1001c2.6299-1.9727,4.2002-5.1128,4.2002-8.3999,0-.1895-.1074-.3623-.2764-.4473Zm-4.2236,7.8125c-2.1191-1.729-3.4053-4.3237-3.4951-7.0586l3.4951-1.7476,3.4951,1.7476c-.0898,2.7349-1.376,5.3296-3.4951,7.0586Zm-5.4525-3.8652c.1042.3389.2202.6721.3535,1H4c-1.3784,0-2.5-1.1216-2.5-2.5,0-.2764.2236-.5.5-.5h10.1011c.043.3369.1072.6694.1784,1H2.5854c.2065.582.7627,1,1.4146,1h8.5475Zm-8.0475-3.5h-1V5c0-1.3784,1.1216-2.5,2.5-2.5h12c1.3789,0,2.5,1.1216,2.5,2.5v5.0137l-1-.5v-4.5137c0-.8271-.6729-1.5-1.5-1.5H6c-.8271,0-1.5.6729-1.5,1.5v8Z"/></svg>