<?xml version="1.0" encoding="UTF-8"?><svg id="a" xmlns="http://www.w3.org/2000/svg" width="24" height="24" viewBox="0 0 24 24"><path d="m16,1.5h-8c-1.3784,0-2.5,1.1216-2.5,2.5v16c0,1.3784,1.1216,2.5,2.5,2.5h8c1.3784,0,2.5-1.1216,2.5-2.5V4c0-1.3784-1.1216-2.5-2.5-2.5Zm1.5,18.5c0,.8271-.6729,1.5-1.5,1.5h-8c-.8271,0-1.5-.6729-1.5-1.5V4c0-.8271.6729-1.5,1.5-1.5h8c.8271,0,1.5.6729,1.5,1.5v16Zm-7.167-5.1367c.2056.1846.2231.5005.0391.7061-.0986.1104-.2354.1665-.3726.1665-.1191,0-.2383-.042-.3335-.1274-.7412-.6636-1.166-1.6143-1.166-2.6084v-2c0-.2764.2236-.5.5-.5s.5.2236.5.5v2c0,.71.3037,1.3892.833,1.8633Zm5.167-3.6934v.8301c0,.8271-.6729,1.5-1.5,1.5s-1.5-.6729-1.5-1.5v-1c0-.2759-.2241-.5-.5-.5s-.5.2241-.5.5v1c0,1.9297,1.5703,3.5,3.5,3.5.2764,0,.5.2236.5.5s-.2236.5-.5.5c-2.4814,0-4.5-2.0186-4.5-4.5v-1c0-.8271.6729-1.5,1.5-1.5s1.5.6729,1.5,1.5v1c0,.2759.2241.5.5.5s.5-.2241.5-.5v-.8301c0-1.4019-1.061-2.5981-2.3652-2.666-.665-.0356-1.3062.1895-1.8013.6328-.2046.1841-.521.168-.7061-.0391-.1841-.2056-.167-.5215.0391-.7061.6929-.6201,1.5947-.9277,2.5205-.8867,1.8271.0957,3.313,1.7397,3.313,3.665Z"/></svg>