<?xml version="1.0" encoding="UTF-8"?><svg id="a" xmlns="http://www.w3.org/2000/svg" width="24" height="24" viewBox="0 0 24 24"><path d="m20,8.5H4c-.8271,0-1.5.6729-1.5,1.5v4c0,.8271.6729,1.5,1.5,1.5h16c.8271,0,1.5-.6729,1.5-1.5v-4c0-.8271-.6729-1.5-1.5-1.5Zm.5,5.5c0,.2759-.2241.5-.5.5H4c-.2759,0-.5-.2241-.5-.5v-4c0-.2759.2241-.5.5-.5h16c.2759,0,.5.2241.5.5v4Zm-7-2c0,.2761-.2239.5-.5.5s-.5-.2239-.5-.5.2239-.5.5-.5.5.2238.5.5Zm-2,0c0,.2761-.2239.5-.5.5s-.5-.2239-.5-.5.2239-.5.5-.5.5.2238.5.5Zm-2,0c0,.2761-.2239.5-.5.5s-.5-.2239-.5-.5.2239-.5.5-.5.5.2238.5.5Zm-2,0c0,.2761-.2239.5-.5.5s-.5-.2239-.5-.5.2239-.5.5-.5.5.2238.5.5Zm8,0c0,.2761-.2239.5-.5.5s-.5-.2239-.5-.5.2239-.5.5-.5.5.2238.5.5Zm2,0c0,.2761-.2239.5-.5.5s-.5-.2239-.5-.5.2239-.5.5-.5.5.2238.5.5Zm0,5h1v3c0,1.3784-1.1216,2.5-2.5,2.5h-8c-1.3784,0-2.5-1.1216-2.5-2.5v-3h1v3c0,.8271.6729,1.5,1.5,1.5h8c.8271,0,1.5-.6729,1.5-1.5v-3ZM6.5,7h-1v-3c0-1.3784,1.1216-2.5,2.5-2.5h8c1.3784,0,2.5,1.1216,2.5,2.5v3h-1v-3c0-.8271-.6729-1.5-1.5-1.5h-8c-.8271,0-1.5.6729-1.5,1.5v3Z"/></svg>