<?xml version="1.0" encoding="UTF-8"?><svg id="a" xmlns="http://www.w3.org/2000/svg" width="24" height="24" viewBox="0 0 24 24"><path d="m16,1.5h-8c-1.3789,0-2.5,1.1216-2.5,2.5v16c0,1.3784,1.1211,2.5,2.5,2.5h8c1.3789,0,2.5-1.1216,2.5-2.5V4c0-1.3784-1.1211-2.5-2.5-2.5Zm1.5,18.5c0,.8271-.6729,1.5-1.5,1.5h-8c-.8271,0-1.5-.6729-1.5-1.5V4c0-.8271.6729-1.5,1.5-1.5h8c.8271,0,1.5.6729,1.5,1.5v16Zm-5-3.5c0,.2761-.2239.5-.5.5s-.5-.2239-.5-.5.2239-.5.5-.5.5.2238.5.5Zm0,2c0,.2761-.2239.5-.5.5s-.5-.2239-.5-.5.2239-.5.5-.5.5.2238.5.5Zm3-2c0,.2761-.2239.5-.5.5s-.5-.2239-.5-.5.2239-.5.5-.5.5.2238.5.5Zm-6,0c0,.2761-.2239.5-.5.5s-.5-.2239-.5-.5.2239-.5.5-.5.5.2238.5.5Zm3-2c0,.2761-.2239.5-.5.5s-.5-.2239-.5-.5.2239-.5.5-.5.5.2238.5.5Zm3,0c0,.2761-.2239.5-.5.5s-.5-.2239-.5-.5.2239-.5.5-.5.5.2238.5.5Zm-6,0c0,.2761-.2239.5-.5.5s-.5-.2239-.5-.5.2239-.5.5-.5.5.2238.5.5Zm3-2c0,.2761-.2239.5-.5.5s-.5-.2239-.5-.5.2239-.5.5-.5.5.2238.5.5Zm3,0c0,.2761-.2239.5-.5.5s-.5-.2239-.5-.5.2239-.5.5-.5.5.2238.5.5Zm-6,0c0,.2761-.2239.5-.5.5s-.5-.2239-.5-.5.2239-.5.5-.5.5.2238.5.5Zm6-4.5c0,.2764-.2236.5-.5.5h-6c-.2764,0-.5-.2236-.5-.5s.2236-.5.5-.5h6c.2764,0,.5.2236.5.5Z"/></svg>