<?xml version="1.0" encoding="UTF-8"?><svg id="a" xmlns="http://www.w3.org/2000/svg" width="24" height="24" viewBox="0 0 24 24"><path d="m17,9.5c-3.0322,0-5.5,2.4678-5.5,5.5s2.4678,5.5,5.5,5.5,5.5-2.4678,5.5-5.5-2.4678-5.5-5.5-5.5Zm0,10c-2.4814,0-4.5-2.0186-4.5-4.5s2.0186-4.5,4.5-4.5,4.5,2.0186,4.5,4.5-2.0186,4.5-4.5,4.5Zm2.3535-6.1865c.1953.1953.1953.5117,0,.707l-2.667,2.666c-.0977.0977-.2256.1465-.3535.1465s-.2559-.0488-.3535-.1465l-1.333-1.333c-.1953-.1953-.1953-.5117,0-.707s.5117-.1953.707,0l.9795.9795,2.3135-2.3125c.1953-.1953.5117-.1953.707,0ZM6,7c.5523,0,1,.4477,1,1s-.4477,1-1,1-1-.4478-1-1,.4477-1,1-1Zm4,0c.5523,0,1,.4477,1,1s-.4477,1-1,1-1-.4478-1-1,.4477-1,1-1Zm12.5-1v4c0,.2018-.0305.3953-.0757.5833-.278-.3408-.588-.654-.9243-.9372v-3.6461c0-.8271-.6729-1.5-1.5-1.5H4c-.8271,0-1.5.6729-1.5,1.5v4c0,.8271.6729,1.5,1.5,1.5h6.9473c-.1849.3185-.3442.6525-.4777,1h-6.4696c-1.3789,0-2.5-1.1211-2.5-2.5v-4c0-1.3789,1.1211-2.5,2.5-2.5h16c1.3789,0,2.5,1.1211,2.5,2.5Zm-9.5,2c0-.5523.4477-1,1-1s1,.4477,1,1c0,.1104-.0297.2118-.0627.311-.4772.1475-.931.3477-1.3588.5886-.3396-.1599-.5784-.4995-.5784-.8997Zm6,0c0,.0994-.0296.1896-.0566.2803-.6179-.1791-1.2686-.2803-1.9434-.2803,0-.5523.4477-1,1-1s1,.4477,1,1Z"/></svg>