<?xml version="1.0" encoding="UTF-8"?><svg id="a" xmlns="http://www.w3.org/2000/svg" width="24" height="24" viewBox="0 0 24 24"><path d="m12.3951,12.5444l-.8085-.4042c-.1155-.0578-.1155-.2226,0-.2803l.8085-.4042c.2426-.1213.4393-.3181.5605-.5606l.4042-.8084c.0577-.1155.2225-.1155.2803,0l.4042.8084c.1213.2426.318.4393.5605.5606l.8085.4042c.1155.0577.1155.2225,0,.2803l-.8085.4042c-.2426.1213-.4393.318-.5605.5606l-.4042.8084c-.0577.1155-.2225.1155-.2803,0l-.4042-.8084c-.1213-.2426-.318-.4393-.5605-.5606Zm-3.9664,4.713l-2.7085,4.5146c-.2705.4492-.7637.728-1.2866.728h-1.4336c-.8271,0-1.5-.6729-1.5-1.5V3c0-.8271.6729-1.5,1.5-1.5h1.4336c.5234,0,1.0166.2788,1.2866.7275v.0005l2.7085,4.5146c.0469.0776.0713.1665.0713.2573v10c0,.0908-.0244.1797-.0713.2573ZM4.5,2.5176c-.023-.0033-.0428-.0176-.0664-.0176h-1.4336c-.2759,0-.5.2241-.5.5v18c0,.2759.2241.5.5.5h1.4336c.0236,0,.0434-.0143.0664-.0176V2.5176Zm3,4.621l-2-3.3334v16.3901l2-3.334V7.1387Zm15-1.1387v12c0,1.2072-.86,2.2171-2,2.4494v.5506c0,.8271-.6729,1.5-1.5,1.5h-2c-.8271,0-1.5-.6729-1.5-1.5v-.5h-5v.5c0,.8271-.6729,1.5-1.5,1.5h-1.9676l.5999-1h1.3677c.2759,0,.5-.2241.5-.5v-.5h-1.2677l.5999-1h11.1678c.8271,0,1.5-.6729,1.5-1.5V6c0-.8271-.6729-1.5-1.5-1.5h-11.1678l-.5999-1h11.7677c1.3789,0,2.5,1.1216,2.5,2.5Zm-3,14.5h-3v.5c0,.2759.2246.5.5.5h2c.2754,0,.5-.2241.5-.5v-.5Zm-9.5-3.5c0,.1697-.0259.3371-.0681.5h8.0681c.8271,0,1.5-.6729,1.5-1.5v-8c0-.8271-.6729-1.5-1.5-1.5h-8.0681c.0421.1629.0681.3303.0681.5v.5h8c.2754,0,.5.2241.5.5v8c0,.2759-.2246.5-.5.5h-8v.5Z"/></svg>