<?xml version="1.0" encoding="UTF-8"?><svg id="a" xmlns="http://www.w3.org/2000/svg" width="24" height="24" viewBox="0 0 24 24"><path d="m20,2.5H4c-1.3784,0-2.5,1.1216-2.5,2.5v12c0,1.2072.8603,2.2171,2,2.4494v.5506c0,.8271.6729,1.5,1.5,1.5h2c.8271,0,1.5-.6729,1.5-1.5v-.5h7v.5c0,.8271.6729,1.5,1.5,1.5h2c.8271,0,1.5-.6729,1.5-1.5v-.5506c1.1397-.2323,2-1.2422,2-2.4494V5c0-1.3784-1.1216-2.5-2.5-2.5ZM7.5,20c0,.2759-.2241.5-.5.5h-2c-.2759,0-.5-.2241-.5-.5v-.5h3v.5Zm12,0c0,.2759-.2241.5-.5.5h-2c-.2759,0-.5-.2241-.5-.5v-.5h3v.5Zm2-3c0,.8271-.6729,1.5-1.5,1.5H4c-.8271,0-1.5-.6729-1.5-1.5V5c0-.8271.6729-1.5,1.5-1.5h16c.8271,0,1.5.6729,1.5,1.5v12Zm-3.5-11.5H6c-.8271,0-1.5.6729-1.5,1.5v1.5h-.5c-.2764,0-.5.2236-.5.5s.2236.5.5.5h.5v3h-.5c-.2764,0-.5.2236-.5.5s.2236.5.5.5h.5v1.5c0,.8271.6729,1.5,1.5,1.5h12c.8271,0,1.5-.6729,1.5-1.5V7c0-.8271-.6729-1.5-1.5-1.5Zm.5,9.5c0,.2759-.2241.5-.5.5H6c-.2759,0-.5-.2241-.5-.5v-1.5h.5c.2764,0,.5-.2236.5-.5s-.2236-.5-.5-.5h-.5v-3h.5c.2764,0,.5-.2236.5-.5s-.2236-.5-.5-.5h-.5v-1.5c0-.2759.2241-.5.5-.5h12c.2759,0,.5.2241.5.5v8Zm-2-5v2c0,.2764-.2236.5-.5.5s-.5-.2236-.5-.5v-2c0-.2764.2236-.5.5-.5s.5.2236.5.5Z"/></svg>