<?xml version="1.0" encoding="UTF-8"?><svg id="a" xmlns="http://www.w3.org/2000/svg" width="24" height="24" viewBox="0 0 24 24"><path d="m18,9.5h-1.5v-3.5c0-2.4814-2.0186-4.5-4.5-4.5s-4.5,2.0186-4.5,4.5c0,.2764.2236.5.5.5s.5-.2236.5-.5c0-1.9297,1.5703-3.5,3.5-3.5s3.5,1.5703,3.5,3.5v3.5H6c-1.3789,0-2.5,1.1216-2.5,2.5v8c0,1.3784,1.1211,2.5,2.5,2.5h12c1.3789,0,2.5-1.1216,2.5-2.5v-8c0-1.3784-1.1211-2.5-2.5-2.5Zm1.5,10.5c0,.8271-.6729,1.5-1.5,1.5H6c-.8271,0-1.5-.6729-1.5-1.5v-1.5h15v1.5Zm0-2.5H4.5v-3h15v3Zm0-4H4.5v-1.5c0-.8271.6729-1.5,1.5-1.5h12c.8271,0,1.5.6729,1.5,1.5v1.5Zm-12.5-1.5c0,.2761-.2239.5-.5.5s-.5-.2239-.5-.5.2239-.5.5-.5.5.2238.5.5Zm-1,4c0-.2762.2239-.5.5-.5s.5.2238.5.5-.2239.5-.5.5-.5-.2239-.5-.5Zm0,4c0-.2762.2239-.5.5-.5s.5.2238.5.5-.2239.5-.5.5-.5-.2239-.5-.5Zm3-8c0,.2761-.2239.5-.5.5s-.5-.2239-.5-.5.2239-.5.5-.5.5.2238.5.5Zm-1,4c0-.2762.2239-.5.5-.5s.5.2238.5.5-.2239.5-.5.5-.5-.2239-.5-.5Zm0,4c0-.2762.2239-.5.5-.5s.5.2238.5.5-.2239.5-.5.5-.5-.2239-.5-.5Zm3-8c0,.2761-.2239.5-.5.5s-.5-.2239-.5-.5.2239-.5.5-.5.5.2238.5.5Zm-1,4c0-.2762.2239-.5.5-.5s.5.2238.5.5-.2239.5-.5.5-.5-.2239-.5-.5Zm0,4c0-.2762.2239-.5.5-.5s.5.2238.5.5-.2239.5-.5.5-.5-.2239-.5-.5Z"/></svg>