<?xml version="1.0" encoding="UTF-8"?><svg id="a" xmlns="http://www.w3.org/2000/svg" width="24" height="24" viewBox="0 0 24 24"><path d="m6.3911,8.9071c.1206.5098.4888.9131.9858,1.0786l.1259.0419c.0154,2.4683,2.0253,4.4722,4.4972,4.4722s4.4818-2.0039,4.4972-4.4722l.1259-.0419c.4971-.166.8662-.5693.9854-1.0796.1201-.5093-.0293-1.0342-.3994-1.4038l-.5403-.5406c.8146-1.1716.8313-2.881.8313-2.9619,0-.1895-.1074-.3623-.2764-.4473-2.0088-1.0044-4.9419-1.9858-5.0654-2.0269-.1025-.0342-.2139-.0342-.3164,0-.1235.041-3.0566,1.0225-5.0654,2.0269-.1694.085-.2764.2578-.2764.4473,0,.0808.0171,1.79.8313,2.9617l-.5408.5408c-.3701.3701-.5195.8955-.3994,1.4048Zm5.6089,4.5928c-1.8021,0-3.2732-1.3746-3.4623-3.1273l3.3041,1.1014c.0513.0171.105.0259.1582.0259s.1069-.0088.1582-.0259l3.3041-1.1014c-.1891,1.7527-1.6602,3.1273-3.4623,3.1273Zm0-10.9722c.605.207,2.8203.9819,4.4844,1.7769-.04.5107-.1855,1.5459-.707,2.1953h-7.5547c-.5215-.6494-.6665-1.6846-.707-2.1953,1.6641-.7949,3.8794-1.5698,4.4844-1.7769Zm-4.5024,5.6816l.7095-.7095h7.5859l.709.7095v.0005c.1777.1772.1523.3857.1338.4673-.0195.0815-.0898.2803-.3291.3604l-4.3066,1.4355-4.3066-1.4355c-.2388-.0801-.3096-.2783-.3286-.3599-.0195-.0815-.0449-.2905.1328-.4683Zm9.6411,7.4394l.2618-.3491c.1494-.1987.1289-.4775-.0469-.6533-.7471-.7451-1.9434-.8296-2.7842-.1978l-2.5693,1.9265-2.5684-1.9265c-.8438-.6323-2.0405-.5474-2.7852.1978-.1758.1758-.1958.4546-.0464.6533l.2625.3499c-1.9387.5088-3.3625,2.2816-3.3625,4.3503v2c0,.2764.2236.5.5.5s.5-.2236.5-.5v-2c0-1.7536,1.3186-3.2235,3.0339-3.4551l2.0662,2.7549c.0869.1162.2197.1885.3643.1987.0122.001.0239.0015.0356.0015.1323,0,.2593-.0522.3535-.1465l1.1465-1.1465v3.793c0,.2764.2236.5.5.5s.5-.2236.5-.5v-3.793l1.1465,1.1465c.0938.0942.2217.1465.3535.1465.0117,0,.0234-.0005.0352-.0015.1445-.0103.2783-.0825.3652-.1987l2.0657-2.7543c1.716.2312,3.0339,1.6994,3.0339,3.4545v2c0,.2764.2236.5.5.5s.5-.2236.5-.5v-2c0-2.0704-1.4225-3.8423-3.3614-4.3511Zm-7.0844,2.5899l-2.3438-3.125c.3608-.1523.792-.1113,1.1211.1348l2.4072,1.8057-1.1846,1.1846Zm3.8921,0l-1.1851-1.1846,2.4077-1.8057c.3291-.2466.7568-.2891,1.1211-.1348l-2.3438,3.125Zm-5.4463,1.7612c0,.2764-.2236.5-.5.5h-1c-.2764,0-.5-.2236-.5-.5s.2236-.5.5-.5h1c.2764,0,.5.2236.5.5Zm8.3-1l.8.4c0,.6295-.2964,1.2223-.8,1.6-.5036-.3777-.8-.9705-.8-1.6l.8-.4ZM11.2,3.8998l.8-.4.8.4c0,.6295-.2964,1.2223-.8,1.6-.5036-.3777-.8-.9705-.8-1.6Z"/></svg>